<?xml version="1.0" encoding="UTF-8" standalone="no"?><!DOCTYPE svg PUBLIC "-//W3C//DTD SVG 1.1//EN" "http://www.w3.org/Graphics/SVG/1.1/DTD/svg11.dtd"><svg width="100%" height="100%" viewBox="0 0 3508 948" version="1.1" xmlns="http://www.w3.org/2000/svg" xmlns:xlink="http://www.w3.org/1999/xlink" xml:space="preserve" xmlns:serif="http://www.serif.com/" style="fill-rule:evenodd;clip-rule:evenodd;stroke-linecap:round;stroke-linejoin:round;stroke-miterlimit:1.5;"><rect id="Artboard6" x="0" y="0" width="3507.874" height="947.662" style="fill:none;"/><g><g><path d="M446.946,333.193c65.801,-35.269 88.467,-56.522 139.689,-58.552c45.517,-1.804 58.805,16.469 48.628,42.301c-10.177,25.832 -10.355,12.456 -14.278,35.179c-3.923,22.723 15.153,46.099 -20.894,52.39c-36.046,6.291 -155.967,-45.171 -155.967,-45.171" style="fill:#ffb5c5;stroke:#ffb5c5;stroke-width:3.75px;"/><path d="M416.896,316.942c-18.8,-36.009 -65.308,-112.287 -86.477,-119.319c-21.169,-7.032 -21.089,13.586 -48.512,29.24c-27.423,15.655 -68.025,28.256 -30.779,59.408c22.895,19.15 55.148,36.527 69.934,40.071c35.127,8.42 58.853,13.447 58.853,13.447" style="fill:#ffb5c5;stroke:#ffb5c5;stroke-width:3.75px;"/><path d="M442.343,361.6c41.486,87.747 71.422,351.702 71.422,351.702l-44.632,-32.901l-21.946,39.969c0,0 -17.246,-251.472 -24.278,-297.696c-7.032,-46.224 -4.078,-48.035 -4.078,-48.035" style="fill:#ffb5c5;stroke:#ffb5c5;stroke-width:3.75px;"/><path d="M379.915,344.187c-18.105,3.881 -75.674,44.777 -119.687,97.815c-62.6,75.437 -115.634,171.508 -115.634,171.508l45.68,-27.109l17.927,61.816c0,0 48.248,-101.426 94.57,-157.096c49.434,-59.411 98.7,-125.094 98.7,-125.094" style="fill:#ffb5c5;stroke:#ffb5c5;stroke-width:3.75px;"/><path d="M417.838,316.942c-18.43,9.4 -49.739,18.023 -33.307,33.678c16.432,15.655 34.455,32.901 48.555,18.8c14.1,-14.1 34.722,-24.646 19.031,-32.959c-15.692,-8.314 -34.279,-19.519 -34.279,-19.519Z" style="fill:#ffb5c5;stroke:#ffb5c5;stroke-width:3.75px;"/><path d="M379.915,328.674c-67.128,-65.801 -137.77,-66.493 -137.77,-66.493" style="fill:#ffb5c5;stroke:#ffb5c5;stroke-width:3.75px;"/><path d="M457.748,351.171c92.41,-7.379 151.425,44.756 151.425,44.756" style="fill:#ffb5c5;stroke:#ffb5c5;stroke-width:3.75px;"/></g><g><path d="M927.322,293.794c31.6,0 57.208,7.718 76.822,23.155c19.614,15.437 29.421,36.05 29.421,61.839c0,25.789 -9.989,51.941 -29.966,78.456c-19.977,26.515 -43.496,47.764 -70.556,63.746c-27.06,15.982 -51.487,23.973 -73.28,23.973c-28.695,0 -45.948,-12.713 -51.759,-38.138c-36.322,63.564 -57.753,108.422 -64.291,134.574c-1.09,3.632 -3.632,5.448 -7.628,5.448c-7.628,0 -15.528,-4.449 -23.7,-13.348c-8.173,-8.899 -12.259,-19.886 -12.259,-32.963c0,-19.251 17.253,-58.025 51.759,-116.322c34.506,-58.297 65.743,-101.975 93.712,-131.033c-37.049,10.17 -74.824,24.699 -113.326,43.587c-3.632,1.453 -5.993,2.179 -7.083,2.179c-5.448,0 -8.173,-3.632 -8.173,-10.897c0,-15.982 12.35,-31.51 37.049,-46.583c24.699,-15.074 53.212,-26.788 85.539,-35.142c32.327,-8.354 61.566,-12.531 87.718,-12.531Zm-81.18,201.589c9.081,0 21.339,-4.086 36.776,-12.259c15.437,-8.173 30.42,-18.252 44.949,-30.238c14.529,-11.986 27.151,-25.607 37.866,-40.863c10.715,-15.255 16.073,-29.058 16.073,-41.407c0,-21.43 -16.163,-32.145 -48.49,-32.145c-10.17,0 -22.157,0.908 -35.959,2.724c5.812,6.538 8.717,11.986 8.717,16.345c0,2.179 -0.726,3.995 -2.179,5.448c-18.524,21.43 -44.132,58.661 -76.822,111.691l0,3.814c0,11.26 6.356,16.89 19.069,16.89Z" style="fill:#ffb5c5;fill-rule:nonzero;stroke:#ffb5c5;stroke-width:1px;stroke-linecap:butt;stroke-miterlimit:2;"/><path d="M1168.684,395.679c17.072,0 30.238,5.902 39.501,17.707c9.262,11.805 13.893,26.969 13.893,45.494c0,23.61 -7.991,49.671 -23.973,78.184c-15.982,28.513 -37.14,53.121 -63.473,73.825c-26.334,20.704 -52.213,31.056 -77.639,31.056c-20.341,0 -36.322,-5.902 -47.945,-17.707c-11.623,-11.805 -17.435,-27.877 -17.435,-48.218c0,-24.336 8.263,-50.125 24.79,-77.367c16.527,-27.242 36.141,-49.58 58.842,-67.015c22.701,-17.435 43.133,-26.152 61.294,-26.152l0.545,0c8.354,-6.538 18.888,-9.807 31.6,-9.807Zm-97.525,207.037c9.807,0 22.247,-8.899 37.321,-26.697c15.074,-17.798 28.331,-38.865 39.773,-63.201c11.442,-24.336 17.162,-44.858 17.162,-61.566c0,-14.166 -3.995,-21.975 -11.986,-23.428c-22.52,11.26 -44.222,33.689 -65.108,67.287c-20.885,33.598 -31.691,62.02 -32.418,85.267c0,14.892 5.085,22.338 15.255,22.338Z" style="fill:#ffb5c5;fill-rule:nonzero;stroke:#ffb5c5;stroke-width:1px;stroke-linecap:butt;stroke-miterlimit:2;"/><path d="M1396.97,395.679c17.072,0 30.238,5.902 39.501,17.707c9.262,11.805 13.893,26.969 13.893,45.494c0,23.61 -7.991,49.671 -23.973,78.184c-15.982,28.513 -37.14,53.121 -63.473,73.825c-26.334,20.704 -52.213,31.056 -77.639,31.056c-20.341,0 -36.322,-5.902 -47.945,-17.707c-11.623,-11.805 -17.435,-27.877 -17.435,-48.218c0,-24.336 8.263,-50.125 24.79,-77.367c16.527,-27.242 36.141,-49.58 58.842,-67.015c22.701,-17.435 43.133,-26.152 61.294,-26.152l0.545,0c8.354,-6.538 18.888,-9.807 31.6,-9.807Zm-97.525,207.037c9.807,0 22.247,-8.899 37.321,-26.697c15.074,-17.798 28.331,-38.865 39.773,-63.201c11.442,-24.336 17.162,-44.858 17.162,-61.566c0,-14.166 -3.995,-21.975 -11.986,-23.428c-22.52,11.26 -44.222,33.689 -65.108,67.287c-20.885,33.598 -31.691,62.02 -32.418,85.267c0,14.892 5.085,22.338 15.255,22.338Z" style="fill:#ffb5c5;fill-rule:nonzero;stroke:#ffb5c5;stroke-width:1px;stroke-linecap:butt;stroke-miterlimit:2;"/><path d="M1691.726,400.037c5.812,0 10.715,2.997 14.711,8.99c3.995,5.993 5.993,12.077 5.993,18.252c0,8.354 -3.269,12.531 -9.807,12.531c-30.874,12.713 -69.921,40.318 -117.14,82.815c3.995,15.619 12.985,30.057 26.969,43.314c13.984,13.258 26.79,21.469 40.045,19.886c11.248,-1.343 26.334,-6.77 28.282,-9.589c6.571,-9.508 11.249,-6.49 11.592,-4.914c5.323,24.499 -9.164,32.334 -37.331,48.056c-21.65,12.084 -45.732,19.297 -52.123,19.297c-13.076,0 -24.881,-7.264 -35.414,-21.793c-10.533,-14.529 -17.253,-33.78 -20.159,-57.753c-22.52,22.883 -42.679,45.585 -60.477,68.104c-2.906,7.628 -8.173,11.442 -15.8,11.442c-7.628,0 -14.438,-3.905 -20.431,-11.714c-5.993,-7.809 -8.99,-18.615 -8.99,-32.418c0,-19.614 12.44,-53.757 37.321,-102.429c24.881,-48.672 51.396,-93.167 79.546,-133.485c28.15,-40.318 46.765,-60.477 55.846,-60.477c7.628,0 15.255,3.451 22.883,10.352c7.628,6.901 11.442,13.076 11.442,18.524c0,2.179 -0.726,3.814 -2.179,4.904c-25.426,29.784 -52.667,69.194 -81.725,118.229c-29.058,49.035 -48.49,87.174 -58.297,114.415c29.784,-35.233 65.017,-71.464 105.698,-108.695c40.681,-37.23 67.196,-55.846 79.546,-55.846Z" style="fill:#ffb5c5;fill-rule:nonzero;stroke:#ffb5c5;stroke-width:1px;stroke-linecap:butt;stroke-miterlimit:2;"/><path d="M1724.416,636.496c0,3.632 -2.179,5.448 -6.538,5.448c-7.628,0 -16.163,-4.449 -25.607,-13.348c-9.444,-8.899 -14.166,-19.16 -14.166,-30.783c0,-18.888 7.718,-44.495 23.155,-76.822c15.437,-32.327 31.782,-60.568 49.035,-84.722c17.253,-24.154 28.967,-36.232 35.142,-36.232c7.264,0 14.983,3.723 23.155,11.169c8.173,7.446 12.259,13.348 12.259,17.707c0,1.816 -0.726,3.451 -2.179,4.904c-21.43,26.515 -42.497,62.928 -63.201,109.239c-20.704,46.311 -31.056,77.457 -31.056,93.439Zm85.668,-268.317c0,0 6.72,-42.784 12.947,-56.404c7.986,-17.47 23.643,-25.316 35.414,-17.435c10.188,6.821 -1.141,24.925 -1.141,24.925c0,0 19.12,-10.715 26.329,-0.799c8.33,11.458 1.095,27.406 -16.053,36.062c-13.37,6.748 -57.496,13.652 -57.496,13.652Z" style="fill:#ffb5c5;fill-rule:nonzero;stroke:#ffb5c5;stroke-width:1px;stroke-linecap:butt;stroke-miterlimit:2;"/><path d="M1887.867,543.874c-10.533,0 -19.977,-1.816 -28.331,-5.448c-2.906,9.807 -4.359,18.706 -4.359,26.697c0,19.251 9.625,28.876 28.876,28.876c22.883,0 43.587,-11.805 62.111,-35.414c1.816,-2.906 3.632,-4.359 5.448,-4.359c2.543,0 4.813,1.453 6.81,4.359c1.998,2.906 2.815,6.538 2.452,10.897c0,13.802 -11.351,29.058 -34.052,45.766c-22.701,16.708 -46.765,25.062 -72.191,25.062c-20.341,0 -36.322,-5.539 -47.945,-16.617c-11.623,-11.078 -17.435,-26.606 -17.435,-46.583c0,-23.973 8.536,-50.488 25.607,-79.546c17.072,-29.058 38.048,-53.485 62.928,-73.28c24.881,-19.796 47.855,-29.694 68.922,-29.694c14.529,0 27.514,4.449 38.956,13.348c11.442,8.899 17.162,21.339 17.162,37.321c0,23.246 -12.44,45.494 -37.321,66.742c-24.881,21.249 -50.76,31.873 -77.639,31.873Zm67.015,-118.774c-10.17,0 -24.79,9.989 -43.859,29.966c-19.069,19.977 -33.871,41.589 -44.404,64.835c1.453,0.363 3.632,0.545 6.538,0.545c18.524,0 37.866,-11.351 58.025,-34.052c20.159,-22.701 30.238,-40.59 30.238,-53.666c0,-5.085 -2.179,-7.628 -6.538,-7.628Z" style="fill:#ffb5c5;fill-rule:nonzero;stroke:#ffb5c5;stroke-width:1px;stroke-linecap:butt;stroke-miterlimit:2;"/><path d="M2342.259,292.705c22.883,0 40.318,5.993 52.304,17.98c11.986,11.986 17.98,26.697 17.98,44.132c0,21.793 -8.263,41.68 -24.79,59.659c-16.527,17.98 -33.507,26.969 -50.942,26.969c-6.538,0 -11.896,-1.453 -16.073,-4.359c-4.177,-2.906 -6.266,-5.993 -6.266,-9.262c0,-2.543 1.271,-4.54 3.814,-5.993c29.784,-31.964 44.676,-56.844 44.676,-74.642c0,-9.807 -5.448,-14.711 -16.345,-14.711c-18.524,0 -41.044,11.442 -67.56,34.325c-26.515,22.883 -49.671,51.215 -69.466,84.994c-19.796,33.78 -29.694,64.291 -29.694,91.532c0,17.072 4.177,30.511 12.531,40.318c8.354,9.807 19.977,14.711 34.869,14.711c18.161,0 36.776,-7.264 55.846,-21.793c19.069,-14.529 35.142,-31.782 48.218,-51.759c0.726,-1.816 1.998,-2.724 3.814,-2.724c6.175,0 9.262,5.993 9.262,17.98c0,24.699 -13.893,48.944 -41.68,72.735c-27.787,23.791 -59.115,35.687 -93.984,35.687c-28.695,0 -51.85,-8.808 -69.466,-26.425c-17.616,-17.616 -26.425,-41.317 -26.425,-71.101c0,-34.869 11.714,-72.554 35.142,-113.053c23.428,-40.499 53.303,-74.824 89.625,-102.974c36.322,-28.15 71.192,-42.225 104.608,-42.225Z" style="fill:#ffb5c5;fill-rule:nonzero;stroke:#ffb5c5;stroke-width:1px;stroke-linecap:butt;stroke-miterlimit:2;"/><path d="M2568.911,400.037c7.628,0 15.346,3.814 23.155,11.442c7.809,7.628 11.714,14.529 11.714,20.704c0,3.269 -1.09,5.63 -3.269,7.083c-23.973,29.784 -41.044,58.479 -51.215,86.084c-0.363,5.085 -2.543,7.628 -6.538,7.628c-4.359,0 -8.808,-3.36 -13.348,-10.079c-4.54,-6.72 -6.81,-15.346 -6.81,-25.88c0,-9.444 2.361,-19.977 7.083,-31.6c-23.246,25.062 -46.856,54.574 -70.829,88.536c-23.973,33.961 -39.41,59.478 -46.311,76.549c-2.179,6.175 -6.72,9.262 -13.621,9.262c-8.354,0 -16.617,-4.086 -24.79,-12.259c-8.173,-8.173 -12.259,-18.07 -12.259,-29.694c0,-15.619 7.537,-39.591 22.611,-71.918c15.074,-32.327 31.328,-61.385 48.763,-87.174c17.435,-25.789 29.421,-38.683 35.959,-38.683c7.264,0 14.529,3.451 21.793,10.352c7.264,6.901 10.897,13.076 10.897,18.524c0,2.179 -0.726,3.814 -2.179,4.904c-21.793,26.515 -42.134,62.293 -61.022,107.333c25.426,-36.686 50.76,-69.376 76.004,-98.07c25.244,-28.695 43.314,-43.042 54.211,-43.042Z" style="fill:#ffb5c5;fill-rule:nonzero;stroke:#ffb5c5;stroke-width:1px;stroke-linecap:butt;stroke-miterlimit:2;"/><path d="M2804.824,400.582c7.264,0 14.983,3.632 23.155,10.897c8.173,7.264 12.259,13.076 12.259,17.435c0,1.816 -0.726,3.451 -2.179,4.904c-18.888,23.246 -38.774,57.208 -59.659,101.884c-11.004,23.539 -30.585,48.458 -19.993,66.545c9.512,16.243 64.4,-6.193 64.4,3.946c0,3.632 -9.427,29.817 -48.628,35.751c-14.413,2.182 -42.263,1.463 -57.89,-14.983c-8.848,-9.311 -13.893,-19.16 -13.893,-30.783c0,-11.623 4.54,-29.058 13.621,-52.304c-43.224,63.201 -80.454,94.801 -111.691,94.801c-26.879,0 -40.318,-14.529 -40.318,-43.587c0,-23.61 8.263,-51.033 24.79,-82.27c16.527,-31.237 38.774,-58.661 66.742,-82.27c27.968,-23.61 55.573,-35.414 82.815,-35.414c22.883,0 35.051,11.26 36.504,33.78c14.892,-18.888 24.881,-28.331 29.966,-28.331Zm-168.354,186.878c14.529,0 51.578,-39.955 111.146,-119.864l10.352,-15.255c0.363,-1.453 0.545,-3.451 0.545,-5.993c0,-5.448 -1.635,-10.079 -4.904,-13.893c-3.269,-3.814 -6.72,-5.721 -10.352,-5.721c-12.35,0 -27.877,10.261 -46.583,30.783c-18.706,20.522 -34.597,42.951 -47.673,67.287c-13.076,24.336 -19.614,42.134 -19.614,53.394c0,6.175 2.361,9.262 7.083,9.262Z" style="fill:#ffb5c5;fill-rule:nonzero;stroke:#ffb5c5;stroke-width:1px;stroke-linecap:butt;stroke-miterlimit:2;"/><path d="M2995.516,298.153c7.628,0 15.165,3.451 22.611,10.352c7.446,6.901 11.169,13.076 11.169,18.524c0,2.179 -0.726,3.814 -2.179,4.904c-19.614,12.713 -44.132,41.952 -73.553,87.718c4.722,-0.363 11.26,-0.545 19.614,-0.545c11.986,0 19.977,0.726 23.973,2.179c7.628,2.906 11.442,12.168 11.442,27.787c0,4.359 -0.636,7.718 -1.907,10.079c-1.271,2.361 -2.997,3.178 -5.176,2.452c-6.175,-1.09 -15.437,-1.635 -27.787,-1.635c-2.906,0 -7.9,0.091 -14.983,0.272c-7.083,0.182 -12.44,0.272 -16.073,0.272c4.359,15.255 6.538,31.782 6.538,49.58c0,34.506 -6.538,70.465 -19.614,107.877c-13.076,37.412 -30.602,69.012 -52.577,94.801c-21.975,25.789 -44.404,38.683 -67.287,38.683c-13.076,0 -22.883,-4.268 -29.421,-12.804c-6.538,-8.536 -9.807,-19.886 -9.807,-34.052c0,-25.426 9.444,-61.385 28.331,-107.877c18.888,-46.493 42.134,-93.893 69.739,-142.202c-3.632,-4.722 -5.448,-9.625 -5.448,-14.711c0,-6.901 3.814,-11.078 11.442,-12.531l10.897,-1.635c23.246,-37.775 44.767,-68.468 64.563,-92.077c19.796,-23.61 34.96,-35.414 45.494,-35.414Zm-161.816,406.447c11.26,0 23.791,-13.348 37.594,-40.045c13.802,-26.697 25.426,-57.843 34.869,-93.439c9.444,-35.596 14.166,-65.925 14.166,-90.987l0,-4.359c-25.062,44.676 -46.765,88.808 -65.108,132.395c-18.343,43.587 -27.514,73.008 -27.514,88.263c0,5.448 1.998,8.173 5.993,8.173Z" style="fill:#ffb5c5;fill-rule:nonzero;stroke:#ffb5c5;stroke-width:1px;stroke-linecap:butt;stroke-miterlimit:2;"/><path d="M3170.953,298.153c7.628,0 15.255,3.451 22.883,10.352c7.628,6.901 11.442,13.076 11.442,18.524c0,2.179 -0.726,3.814 -2.179,4.904c-17.072,18.161 -35.959,42.497 -56.663,73.008l107.978,1.271c3.995,0 5.993,1.816 5.993,5.448c0,3.995 -2.27,8.808 -6.81,14.438c-4.54,5.63 -9.353,9.171 -14.438,10.624c-5.812,1.816 -85.276,2.18 -115.061,3.633c-46.493,76.277 -75.187,141.657 -86.084,196.141c0,3.632 -1.998,5.448 -5.993,5.448c-7.264,0 -15.528,-4.449 -24.79,-13.348c-9.262,-8.899 -13.893,-19.16 -13.893,-30.783c0,-29.421 21.249,-80.999 63.746,-154.733l-5.993,0c-14.166,0 -21.249,-5.993 -21.249,-17.98c0,-4.722 0.999,-9.262 2.997,-13.621c1.998,-4.359 3.723,-6.538 5.176,-6.538l42.497,0c19.251,-30.874 37.321,-56.39 54.211,-76.549c16.89,-20.159 28.967,-30.238 36.232,-30.238Z" style="fill:#ffb5c5;fill-rule:nonzero;stroke:#ffb5c5;stroke-width:1px;stroke-linecap:butt;stroke-miterlimit:2;"/><path d="M3309.886,425.644c-12.35,0 -26.425,5.902 -42.225,17.707c-15.8,11.805 -23.7,23.882 -23.7,36.232c0,7.628 3.541,15.074 10.624,22.338c7.083,7.264 14.801,13.621 23.155,19.069c8.354,5.448 16.073,12.713 23.155,21.793c7.083,9.081 10.624,18.888 10.624,29.421c0,19.251 -9.535,35.687 -28.604,49.308c-19.069,13.621 -41.68,20.431 -67.832,20.431c-24.699,0 -45.221,-6.175 -61.566,-18.524c-16.345,-12.35 -24.518,-27.242 -24.518,-44.676c0,-13.439 4.177,-24.881 12.531,-34.325c8.354,-9.444 15.982,-14.166 22.883,-14.166c3.995,0 5.993,1.816 5.993,5.448c0.363,17.798 7.446,33.417 21.249,46.856c13.802,13.439 28.695,20.159 44.676,20.159c7.628,0 13.621,-1.635 17.98,-4.904c4.359,-3.269 6.538,-7.264 6.538,-11.986c0,-5.812 -3.905,-12.35 -11.714,-19.614c-7.809,-7.264 -16.436,-13.984 -25.88,-20.159c-9.444,-6.175 -18.07,-14.529 -25.88,-25.062c-7.809,-10.533 -11.714,-21.43 -11.714,-32.69c0,-23.61 12.259,-45.131 36.776,-64.563c24.518,-19.432 52.032,-29.149 82.543,-29.149c18.888,0 33.326,4.449 43.314,13.348c9.989,8.899 14.983,18.978 14.983,30.238c0,13.076 -5.902,25.789 -17.707,38.138c-11.805,12.35 -24.245,18.524 -37.321,18.524c-5.085,0 -9.625,-0.999 -13.621,-2.997c-3.995,-1.998 -5.993,-4.268 -5.993,-6.81c0,-0.726 0.908,-1.998 2.724,-3.814c3.995,-3.995 9.353,-11.26 16.073,-21.793c6.72,-10.533 10.079,-19.432 10.079,-26.697c0,-4.722 -2.543,-7.083 -7.628,-7.083Z" style="fill:#ffb5c5;fill-rule:nonzero;stroke:#ffb5c5;stroke-width:1px;stroke-linecap:butt;stroke-miterlimit:2;"/></g></g></svg>